<svg id="Layer_1" data-name="Layer 1" xmlns="http://www.w3.org/2000/svg" viewBox="0 0 14.81 24.28"><defs><style>.cls-1{fill:#092F87;}</style></defs><title>ico-phone</title><path class="cls-1" d="M8.06,5.41a1.33,1.33,0,0,1-.73,1.74h0a1.33,1.33,0,0,1-1.75-.7L3.51,1.5A1.33,1.33,0,0,1,4.24-.24h0A1.33,1.33,0,0,1,6,.46Z" transform="translate(-0.19 0.34)"/><path class="cls-1" d="M14.9,21.8a1.33,1.33,0,0,1-.73,1.74h0a1.33,1.33,0,0,1-1.75-.7l-2.06-4.94a1.34,1.34,0,0,1,.73-1.74h0a1.33,1.33,0,0,1,1.75.7Z" transform="translate(-0.19 0.34)"/><path class="cls-1" d="M11.92,23.91C4.16,24.8-3.77,6.25,2.4,1.22L5.13,7.76c-2.45.37,2.73,11.47,4.08,9.67Z" transform="translate(-0.19 0.34)"/></svg>