<svg id="Layer_1" data-name="Layer 1" xmlns="http://www.w3.org/2000/svg" viewBox="0 0 16 16"><defs><style>.cls-1{fill:#092F87;}</style></defs><title>ico-search</title><path class="cls-1" d="M12.08,7.77a4.15,4.15,0,0,0-1.26-3,4.15,4.15,0,0,0-3-1.26,4.15,4.15,0,0,0-3,1.26,4.15,4.15,0,0,0-1.26,3,4.15,4.15,0,0,0,1.26,3,4.15,4.15,0,0,0,3,1.26,4.15,4.15,0,0,0,3-1.26,4.15,4.15,0,0,0,1.26-3Zm4.92,8A1.25,1.25,0,0,1,15.77,17a1.14,1.14,0,0,1-.87-.37l-3.3-3.29a6.58,6.58,0,0,1-3.84,1.19A6.65,6.65,0,0,1,5.14,14,6.63,6.63,0,0,1,1.53,10.4a6.75,6.75,0,0,1,0-5.26A6.63,6.63,0,0,1,5.14,1.53a6.75,6.75,0,0,1,5.26,0A6.63,6.63,0,0,1,14,5.14a6.65,6.65,0,0,1,.53,2.63,6.58,6.58,0,0,1-1.19,3.84l3.3,3.3a1.18,1.18,0,0,1,.36.87Z" transform="translate(-1 -1)"/></svg>